# xmcd CD database file
#
# Track frame offsets:
#	150
#	22642
#	43475
#	64955
#	83805
#	104667
#	124600
#	147507
#	168937
#	189807
#
# Disc length: 2882 seconds
#
# Revision: 0
# Processed by: cddbd v1.5PL3 Copyright (c) Steve Scherf et al.
# Submitted via: CDex 1.51
#
DISCID=840b400a
DTITLE=島涼香・かかずゆみ - Monument-C.T.i.A/H&H
DYEAR=2000
DGENRE=Japanese Unclassifiable
TTITLE0=Hello
TTITLE1=DO YOUR BEST <VOCAL NEW RECORDING>
TTITLE2=DESTINY
TTITLE3=笑顔のWiper.<H&H MIX>
TTITLE4=恋しましょ ねばりましょ
TTITLE5=あの空の向こう側<VOCAL NEW RECORDING>
TTITLE6=Lucky girl
TTITLE7=HOT SPICE
TTITLE8=またね
TTITLE9=Somewhere in time <VOCAL NEW RECORDING>
EXTD=YEAR: 2000
EXTT0=
EXTT1=
EXTT2=
EXTT3=
EXTT4=
EXTT5=
EXTT6=
EXTT7=
EXTT8=
EXTT9=
PLAYORDER=
